%TF.GenerationSoftware,KiCad,Pcbnew,(6.0.5)*%
%TF.CreationDate,2025-03-15T15:53:08+01:00*%
%TF.ProjectId,PMA5-123-3W,504d4135-2d31-4323-932d-33572e6b6963,rev?*%
%TF.SameCoordinates,Original*%
%TF.FileFunction,Soldermask,Bot*%
%TF.FilePolarity,Negative*%
%FSLAX46Y46*%
G04 Gerber Fmt 4.6, Leading zero omitted, Abs format (unit mm)*
G04 Created by KiCad (PCBNEW (6.0.5)) date 2025-03-15 15:53:08*
%MOMM*%
%LPD*%
G01*
G04 APERTURE LIST*
%ADD10R,4.700000X4.000000*%
%ADD11C,0.800000*%
%ADD12C,5.400000*%
%ADD13O,4.000000X4.500000*%
G04 APERTURE END LIST*
D10*
%TO.C,J3*%
X183640000Y-55750000D03*
X183640000Y-46250000D03*
%TD*%
D11*
%TO.C,H5*%
X157568109Y-60568109D03*
X161025000Y-62000000D03*
X159000000Y-64025000D03*
X160431891Y-63431891D03*
X159000000Y-59975000D03*
X156975000Y-62000000D03*
X160431891Y-60568109D03*
X157568109Y-63431891D03*
D12*
X159000000Y-62000000D03*
%TD*%
D11*
%TO.C,H1*%
X183000000Y-37975000D03*
X184431891Y-41431891D03*
X184431891Y-38568109D03*
X181568109Y-41431891D03*
X180975000Y-40000000D03*
X183000000Y-42025000D03*
X185025000Y-40000000D03*
D12*
X183000000Y-40000000D03*
D11*
X181568109Y-38568109D03*
%TD*%
%TO.C,H4*%
X160431891Y-38568109D03*
X160431891Y-41431891D03*
X159000000Y-42025000D03*
X157568109Y-38568109D03*
X161025000Y-40000000D03*
X159000000Y-37975000D03*
X157568109Y-41431891D03*
X156975000Y-40000000D03*
D12*
X159000000Y-40000000D03*
%TD*%
D13*
%TO.C,J1*%
X176000000Y-70000000D03*
X171000000Y-70000000D03*
X166000000Y-70000000D03*
%TD*%
D10*
%TO.C,J5*%
X158360000Y-55750000D03*
X158360000Y-46250000D03*
%TD*%
D11*
%TO.C,H6*%
X181568109Y-63431891D03*
X181568109Y-60568109D03*
X183000000Y-64025000D03*
X184431891Y-63431891D03*
X183000000Y-59975000D03*
X180975000Y-62000000D03*
X184431891Y-60568109D03*
X185025000Y-62000000D03*
D12*
X183000000Y-62000000D03*
%TD*%
G36*
X172942121Y-48770002D02*
G01*
X172988614Y-48823658D01*
X173000000Y-48876000D01*
X173000000Y-52624000D01*
X172979998Y-52692121D01*
X172926342Y-52738614D01*
X172874000Y-52750000D01*
X169126000Y-52750000D01*
X169057879Y-52729998D01*
X169011386Y-52676342D01*
X169000000Y-52624000D01*
X169000000Y-48876000D01*
X169020002Y-48807879D01*
X169073658Y-48761386D01*
X169126000Y-48750000D01*
X172874000Y-48750000D01*
X172942121Y-48770002D01*
G37*
G36*
X185942121Y-48270002D02*
G01*
X185988614Y-48323658D01*
X186000000Y-48376000D01*
X186000000Y-53624000D01*
X185979998Y-53692121D01*
X185926342Y-53738614D01*
X185874000Y-53750000D01*
X181376000Y-53750000D01*
X181307879Y-53729998D01*
X181261386Y-53676342D01*
X181250000Y-53624000D01*
X181250000Y-48376000D01*
X181270002Y-48307879D01*
X181323658Y-48261386D01*
X181376000Y-48250000D01*
X185874000Y-48250000D01*
X185942121Y-48270002D01*
G37*
G36*
X160692121Y-48270002D02*
G01*
X160738614Y-48323658D01*
X160750000Y-48376000D01*
X160750000Y-53624000D01*
X160729998Y-53692121D01*
X160676342Y-53738614D01*
X160624000Y-53750000D01*
X156126000Y-53750000D01*
X156057879Y-53729998D01*
X156011386Y-53676342D01*
X156000000Y-53624000D01*
X156000000Y-48376000D01*
X156020002Y-48307879D01*
X156073658Y-48261386D01*
X156126000Y-48250000D01*
X160624000Y-48250000D01*
X160692121Y-48270002D01*
G37*
M02*
