%TF.GenerationSoftware,KiCad,Pcbnew,(6.0.5)*%
%TF.CreationDate,2025-03-15T15:53:08+01:00*%
%TF.ProjectId,PMA5-123-3W,504d4135-2d31-4323-932d-33572e6b6963,rev?*%
%TF.SameCoordinates,Original*%
%TF.FileFunction,Legend,Top*%
%TF.FilePolarity,Positive*%
%FSLAX46Y46*%
G04 Gerber Fmt 4.6, Leading zero omitted, Abs format (unit mm)*
G04 Created by KiCad (PCBNEW (6.0.5)) date 2025-03-15 15:53:08*
%MOMM*%
%LPD*%
G01*
G04 APERTURE LIST*
%ADD10C,0.150000*%
%ADD11C,0.120000*%
G04 APERTURE END LIST*
D10*
X178964285Y-71702380D02*
X179297619Y-72702380D01*
X179630952Y-71702380D01*
X180392857Y-72035714D02*
X180392857Y-72845238D01*
X180345238Y-72940476D01*
X180297619Y-72988095D01*
X180202380Y-73035714D01*
X180059523Y-73035714D01*
X179964285Y-72988095D01*
X180392857Y-72654761D02*
X180297619Y-72702380D01*
X180107142Y-72702380D01*
X180011904Y-72654761D01*
X179964285Y-72607142D01*
X179916666Y-72511904D01*
X179916666Y-72226190D01*
X179964285Y-72130952D01*
X180011904Y-72083333D01*
X180107142Y-72035714D01*
X180297619Y-72035714D01*
X180392857Y-72083333D01*
X160511904Y-72202380D02*
X160845238Y-73202380D01*
X161178571Y-72202380D01*
X161940476Y-73202380D02*
X161940476Y-72202380D01*
X161940476Y-73154761D02*
X161845238Y-73202380D01*
X161654761Y-73202380D01*
X161559523Y-73154761D01*
X161511904Y-73107142D01*
X161464285Y-73011904D01*
X161464285Y-72726190D01*
X161511904Y-72630952D01*
X161559523Y-72583333D01*
X161654761Y-72535714D01*
X161845238Y-72535714D01*
X161940476Y-72583333D01*
X162845238Y-73202380D02*
X162845238Y-72202380D01*
X162845238Y-73154761D02*
X162750000Y-73202380D01*
X162559523Y-73202380D01*
X162464285Y-73154761D01*
X162416666Y-73107142D01*
X162369047Y-73011904D01*
X162369047Y-72726190D01*
X162416666Y-72630952D01*
X162464285Y-72583333D01*
X162559523Y-72535714D01*
X162750000Y-72535714D01*
X162845238Y-72583333D01*
X161416666Y-53952380D02*
X161607142Y-53952380D01*
X161702380Y-54000000D01*
X161797619Y-54095238D01*
X161845238Y-54285714D01*
X161845238Y-54619047D01*
X161797619Y-54809523D01*
X161702380Y-54904761D01*
X161607142Y-54952380D01*
X161416666Y-54952380D01*
X161321428Y-54904761D01*
X161226190Y-54809523D01*
X161178571Y-54619047D01*
X161178571Y-54285714D01*
X161226190Y-54095238D01*
X161321428Y-54000000D01*
X161416666Y-53952380D01*
X162702380Y-54285714D02*
X162702380Y-54952380D01*
X162273809Y-54285714D02*
X162273809Y-54809523D01*
X162321428Y-54904761D01*
X162416666Y-54952380D01*
X162559523Y-54952380D01*
X162654761Y-54904761D01*
X162702380Y-54857142D01*
X163035714Y-54285714D02*
X163416666Y-54285714D01*
X163178571Y-53952380D02*
X163178571Y-54809523D01*
X163226190Y-54904761D01*
X163321428Y-54952380D01*
X163416666Y-54952380D01*
X180047619Y-54702380D02*
X180047619Y-53702380D01*
X180523809Y-54035714D02*
X180523809Y-54702380D01*
X180523809Y-54130952D02*
X180571428Y-54083333D01*
X180666666Y-54035714D01*
X180809523Y-54035714D01*
X180904761Y-54083333D01*
X180952380Y-54178571D01*
X180952380Y-54702380D01*
%TO.C,C16*%
X166407142Y-46969882D02*
X166359523Y-47017501D01*
X166216666Y-47065120D01*
X166121428Y-47065120D01*
X165978571Y-47017501D01*
X165883333Y-46922263D01*
X165835714Y-46827025D01*
X165788095Y-46636549D01*
X165788095Y-46493692D01*
X165835714Y-46303216D01*
X165883333Y-46207978D01*
X165978571Y-46112740D01*
X166121428Y-46065120D01*
X166216666Y-46065120D01*
X166359523Y-46112740D01*
X166407142Y-46160359D01*
X167359523Y-47065120D02*
X166788095Y-47065120D01*
X167073809Y-47065120D02*
X167073809Y-46065120D01*
X166978571Y-46207978D01*
X166883333Y-46303216D01*
X166788095Y-46350835D01*
X168216666Y-46065120D02*
X168026190Y-46065120D01*
X167930952Y-46112740D01*
X167883333Y-46160359D01*
X167788095Y-46303216D01*
X167740476Y-46493692D01*
X167740476Y-46874644D01*
X167788095Y-46969882D01*
X167835714Y-47017501D01*
X167930952Y-47065120D01*
X168121428Y-47065120D01*
X168216666Y-47017501D01*
X168264285Y-46969882D01*
X168311904Y-46874644D01*
X168311904Y-46636549D01*
X168264285Y-46541311D01*
X168216666Y-46493692D01*
X168121428Y-46446073D01*
X167930952Y-46446073D01*
X167835714Y-46493692D01*
X167788095Y-46541311D01*
X167740476Y-46636549D01*
%TO.C,C18*%
X165107142Y-57642857D02*
X165154761Y-57690476D01*
X165202380Y-57833333D01*
X165202380Y-57928571D01*
X165154761Y-58071428D01*
X165059523Y-58166666D01*
X164964285Y-58214285D01*
X164773809Y-58261904D01*
X164630952Y-58261904D01*
X164440476Y-58214285D01*
X164345238Y-58166666D01*
X164250000Y-58071428D01*
X164202380Y-57928571D01*
X164202380Y-57833333D01*
X164250000Y-57690476D01*
X164297619Y-57642857D01*
X165202380Y-56690476D02*
X165202380Y-57261904D01*
X165202380Y-56976190D02*
X164202380Y-56976190D01*
X164345238Y-57071428D01*
X164440476Y-57166666D01*
X164488095Y-57261904D01*
X164630952Y-56119047D02*
X164583333Y-56214285D01*
X164535714Y-56261904D01*
X164440476Y-56309523D01*
X164392857Y-56309523D01*
X164297619Y-56261904D01*
X164250000Y-56214285D01*
X164202380Y-56119047D01*
X164202380Y-55928571D01*
X164250000Y-55833333D01*
X164297619Y-55785714D01*
X164392857Y-55738095D01*
X164440476Y-55738095D01*
X164535714Y-55785714D01*
X164583333Y-55833333D01*
X164630952Y-55928571D01*
X164630952Y-56119047D01*
X164678571Y-56214285D01*
X164726190Y-56261904D01*
X164821428Y-56309523D01*
X165011904Y-56309523D01*
X165107142Y-56261904D01*
X165154761Y-56214285D01*
X165202380Y-56119047D01*
X165202380Y-55928571D01*
X165154761Y-55833333D01*
X165107142Y-55785714D01*
X165011904Y-55738095D01*
X164821428Y-55738095D01*
X164726190Y-55785714D01*
X164678571Y-55833333D01*
X164630952Y-55928571D01*
%TO.C,C13*%
X175607142Y-42427142D02*
X175559523Y-42474761D01*
X175416666Y-42522380D01*
X175321428Y-42522380D01*
X175178571Y-42474761D01*
X175083333Y-42379523D01*
X175035714Y-42284285D01*
X174988095Y-42093809D01*
X174988095Y-41950952D01*
X175035714Y-41760476D01*
X175083333Y-41665238D01*
X175178571Y-41570000D01*
X175321428Y-41522380D01*
X175416666Y-41522380D01*
X175559523Y-41570000D01*
X175607142Y-41617619D01*
X176559523Y-42522380D02*
X175988095Y-42522380D01*
X176273809Y-42522380D02*
X176273809Y-41522380D01*
X176178571Y-41665238D01*
X176083333Y-41760476D01*
X175988095Y-41808095D01*
X176892857Y-41522380D02*
X177511904Y-41522380D01*
X177178571Y-41903333D01*
X177321428Y-41903333D01*
X177416666Y-41950952D01*
X177464285Y-41998571D01*
X177511904Y-42093809D01*
X177511904Y-42331904D01*
X177464285Y-42427142D01*
X177416666Y-42474761D01*
X177321428Y-42522380D01*
X177035714Y-42522380D01*
X176940476Y-42474761D01*
X176892857Y-42427142D01*
%TO.C,C19*%
X164457142Y-43192857D02*
X164504761Y-43240476D01*
X164552380Y-43383333D01*
X164552380Y-43478571D01*
X164504761Y-43621428D01*
X164409523Y-43716666D01*
X164314285Y-43764285D01*
X164123809Y-43811904D01*
X163980952Y-43811904D01*
X163790476Y-43764285D01*
X163695238Y-43716666D01*
X163600000Y-43621428D01*
X163552380Y-43478571D01*
X163552380Y-43383333D01*
X163600000Y-43240476D01*
X163647619Y-43192857D01*
X164552380Y-42240476D02*
X164552380Y-42811904D01*
X164552380Y-42526190D02*
X163552380Y-42526190D01*
X163695238Y-42621428D01*
X163790476Y-42716666D01*
X163838095Y-42811904D01*
X164552380Y-41764285D02*
X164552380Y-41573809D01*
X164504761Y-41478571D01*
X164457142Y-41430952D01*
X164314285Y-41335714D01*
X164123809Y-41288095D01*
X163742857Y-41288095D01*
X163647619Y-41335714D01*
X163600000Y-41383333D01*
X163552380Y-41478571D01*
X163552380Y-41669047D01*
X163600000Y-41764285D01*
X163647619Y-41811904D01*
X163742857Y-41859523D01*
X163980952Y-41859523D01*
X164076190Y-41811904D01*
X164123809Y-41764285D01*
X164171428Y-41669047D01*
X164171428Y-41478571D01*
X164123809Y-41383333D01*
X164076190Y-41335714D01*
X163980952Y-41288095D01*
%TO.C,L1*%
X173933333Y-58852380D02*
X173457142Y-58852380D01*
X173457142Y-57852380D01*
X174790476Y-58852380D02*
X174219047Y-58852380D01*
X174504761Y-58852380D02*
X174504761Y-57852380D01*
X174409523Y-57995238D01*
X174314285Y-58090476D01*
X174219047Y-58138095D01*
%TO.C,C6*%
X176433333Y-56657142D02*
X176385714Y-56704761D01*
X176242857Y-56752380D01*
X176147619Y-56752380D01*
X176004761Y-56704761D01*
X175909523Y-56609523D01*
X175861904Y-56514285D01*
X175814285Y-56323809D01*
X175814285Y-56180952D01*
X175861904Y-55990476D01*
X175909523Y-55895238D01*
X176004761Y-55800000D01*
X176147619Y-55752380D01*
X176242857Y-55752380D01*
X176385714Y-55800000D01*
X176433333Y-55847619D01*
X177290476Y-55752380D02*
X177100000Y-55752380D01*
X177004761Y-55800000D01*
X176957142Y-55847619D01*
X176861904Y-55990476D01*
X176814285Y-56180952D01*
X176814285Y-56561904D01*
X176861904Y-56657142D01*
X176909523Y-56704761D01*
X177004761Y-56752380D01*
X177195238Y-56752380D01*
X177290476Y-56704761D01*
X177338095Y-56657142D01*
X177385714Y-56561904D01*
X177385714Y-56323809D01*
X177338095Y-56228571D01*
X177290476Y-56180952D01*
X177195238Y-56133333D01*
X177004761Y-56133333D01*
X176909523Y-56180952D01*
X176861904Y-56228571D01*
X176814285Y-56323809D01*
%TO.C,R13*%
X179652380Y-46542857D02*
X179176190Y-46876190D01*
X179652380Y-47114285D02*
X178652380Y-47114285D01*
X178652380Y-46733333D01*
X178700000Y-46638095D01*
X178747619Y-46590476D01*
X178842857Y-46542857D01*
X178985714Y-46542857D01*
X179080952Y-46590476D01*
X179128571Y-46638095D01*
X179176190Y-46733333D01*
X179176190Y-47114285D01*
X179652380Y-45590476D02*
X179652380Y-46161904D01*
X179652380Y-45876190D02*
X178652380Y-45876190D01*
X178795238Y-45971428D01*
X178890476Y-46066666D01*
X178938095Y-46161904D01*
X178652380Y-45257142D02*
X178652380Y-44638095D01*
X179033333Y-44971428D01*
X179033333Y-44828571D01*
X179080952Y-44733333D01*
X179128571Y-44685714D01*
X179223809Y-44638095D01*
X179461904Y-44638095D01*
X179557142Y-44685714D01*
X179604761Y-44733333D01*
X179652380Y-44828571D01*
X179652380Y-45114285D01*
X179604761Y-45209523D01*
X179557142Y-45257142D01*
%TO.C,C14*%
X170857142Y-60357142D02*
X170809523Y-60404761D01*
X170666666Y-60452380D01*
X170571428Y-60452380D01*
X170428571Y-60404761D01*
X170333333Y-60309523D01*
X170285714Y-60214285D01*
X170238095Y-60023809D01*
X170238095Y-59880952D01*
X170285714Y-59690476D01*
X170333333Y-59595238D01*
X170428571Y-59500000D01*
X170571428Y-59452380D01*
X170666666Y-59452380D01*
X170809523Y-59500000D01*
X170857142Y-59547619D01*
X171809523Y-60452380D02*
X171238095Y-60452380D01*
X171523809Y-60452380D02*
X171523809Y-59452380D01*
X171428571Y-59595238D01*
X171333333Y-59690476D01*
X171238095Y-59738095D01*
X172666666Y-59785714D02*
X172666666Y-60452380D01*
X172428571Y-59404761D02*
X172190476Y-60119047D01*
X172809523Y-60119047D01*
%TO.C,C8*%
X172357142Y-42166666D02*
X172404761Y-42214285D01*
X172452380Y-42357142D01*
X172452380Y-42452380D01*
X172404761Y-42595238D01*
X172309523Y-42690476D01*
X172214285Y-42738095D01*
X172023809Y-42785714D01*
X171880952Y-42785714D01*
X171690476Y-42738095D01*
X171595238Y-42690476D01*
X171500000Y-42595238D01*
X171452380Y-42452380D01*
X171452380Y-42357142D01*
X171500000Y-42214285D01*
X171547619Y-42166666D01*
X171880952Y-41595238D02*
X171833333Y-41690476D01*
X171785714Y-41738095D01*
X171690476Y-41785714D01*
X171642857Y-41785714D01*
X171547619Y-41738095D01*
X171500000Y-41690476D01*
X171452380Y-41595238D01*
X171452380Y-41404761D01*
X171500000Y-41309523D01*
X171547619Y-41261904D01*
X171642857Y-41214285D01*
X171690476Y-41214285D01*
X171785714Y-41261904D01*
X171833333Y-41309523D01*
X171880952Y-41404761D01*
X171880952Y-41595238D01*
X171928571Y-41690476D01*
X171976190Y-41738095D01*
X172071428Y-41785714D01*
X172261904Y-41785714D01*
X172357142Y-41738095D01*
X172404761Y-41690476D01*
X172452380Y-41595238D01*
X172452380Y-41404761D01*
X172404761Y-41309523D01*
X172357142Y-41261904D01*
X172261904Y-41214285D01*
X172071428Y-41214285D01*
X171976190Y-41261904D01*
X171928571Y-41309523D01*
X171880952Y-41404761D01*
%TO.C,R5*%
X173583333Y-42352380D02*
X173250000Y-41876190D01*
X173011904Y-42352380D02*
X173011904Y-41352380D01*
X173392857Y-41352380D01*
X173488095Y-41400000D01*
X173535714Y-41447619D01*
X173583333Y-41542857D01*
X173583333Y-41685714D01*
X173535714Y-41780952D01*
X173488095Y-41828571D01*
X173392857Y-41876190D01*
X173011904Y-41876190D01*
X174488095Y-41352380D02*
X174011904Y-41352380D01*
X173964285Y-41828571D01*
X174011904Y-41780952D01*
X174107142Y-41733333D01*
X174345238Y-41733333D01*
X174440476Y-41780952D01*
X174488095Y-41828571D01*
X174535714Y-41923809D01*
X174535714Y-42161904D01*
X174488095Y-42257142D01*
X174440476Y-42304761D01*
X174345238Y-42352380D01*
X174107142Y-42352380D01*
X174011904Y-42304761D01*
X173964285Y-42257142D01*
%TO.C,C11*%
X176157142Y-55057142D02*
X176109523Y-55104761D01*
X175966666Y-55152380D01*
X175871428Y-55152380D01*
X175728571Y-55104761D01*
X175633333Y-55009523D01*
X175585714Y-54914285D01*
X175538095Y-54723809D01*
X175538095Y-54580952D01*
X175585714Y-54390476D01*
X175633333Y-54295238D01*
X175728571Y-54200000D01*
X175871428Y-54152380D01*
X175966666Y-54152380D01*
X176109523Y-54200000D01*
X176157142Y-54247619D01*
X177109523Y-55152380D02*
X176538095Y-55152380D01*
X176823809Y-55152380D02*
X176823809Y-54152380D01*
X176728571Y-54295238D01*
X176633333Y-54390476D01*
X176538095Y-54438095D01*
X178061904Y-55152380D02*
X177490476Y-55152380D01*
X177776190Y-55152380D02*
X177776190Y-54152380D01*
X177680952Y-54295238D01*
X177585714Y-54390476D01*
X177490476Y-54438095D01*
%TO.C,L2*%
X166702380Y-56916666D02*
X166702380Y-57392857D01*
X165702380Y-57392857D01*
X165797619Y-56630952D02*
X165750000Y-56583333D01*
X165702380Y-56488095D01*
X165702380Y-56250000D01*
X165750000Y-56154761D01*
X165797619Y-56107142D01*
X165892857Y-56059523D01*
X165988095Y-56059523D01*
X166130952Y-56107142D01*
X166702380Y-56678571D01*
X166702380Y-56059523D01*
%TO.C,C10*%
X164644642Y-59557142D02*
X164597023Y-59604761D01*
X164454166Y-59652380D01*
X164358928Y-59652380D01*
X164216071Y-59604761D01*
X164120833Y-59509523D01*
X164073214Y-59414285D01*
X164025595Y-59223809D01*
X164025595Y-59080952D01*
X164073214Y-58890476D01*
X164120833Y-58795238D01*
X164216071Y-58700000D01*
X164358928Y-58652380D01*
X164454166Y-58652380D01*
X164597023Y-58700000D01*
X164644642Y-58747619D01*
X165597023Y-59652380D02*
X165025595Y-59652380D01*
X165311309Y-59652380D02*
X165311309Y-58652380D01*
X165216071Y-58795238D01*
X165120833Y-58890476D01*
X165025595Y-58938095D01*
X166216071Y-58652380D02*
X166311309Y-58652380D01*
X166406547Y-58700000D01*
X166454166Y-58747619D01*
X166501785Y-58842857D01*
X166549404Y-59033333D01*
X166549404Y-59271428D01*
X166501785Y-59461904D01*
X166454166Y-59557142D01*
X166406547Y-59604761D01*
X166311309Y-59652380D01*
X166216071Y-59652380D01*
X166120833Y-59604761D01*
X166073214Y-59557142D01*
X166025595Y-59461904D01*
X165977976Y-59271428D01*
X165977976Y-59033333D01*
X166025595Y-58842857D01*
X166073214Y-58747619D01*
X166120833Y-58700000D01*
X166216071Y-58652380D01*
%TO.C,C7*%
X176883333Y-47007142D02*
X176835714Y-47054761D01*
X176692857Y-47102380D01*
X176597619Y-47102380D01*
X176454761Y-47054761D01*
X176359523Y-46959523D01*
X176311904Y-46864285D01*
X176264285Y-46673809D01*
X176264285Y-46530952D01*
X176311904Y-46340476D01*
X176359523Y-46245238D01*
X176454761Y-46150000D01*
X176597619Y-46102380D01*
X176692857Y-46102380D01*
X176835714Y-46150000D01*
X176883333Y-46197619D01*
X177216666Y-46102380D02*
X177883333Y-46102380D01*
X177454761Y-47102380D01*
%TO.C,C20*%
X162757142Y-43192857D02*
X162804761Y-43240476D01*
X162852380Y-43383333D01*
X162852380Y-43478571D01*
X162804761Y-43621428D01*
X162709523Y-43716666D01*
X162614285Y-43764285D01*
X162423809Y-43811904D01*
X162280952Y-43811904D01*
X162090476Y-43764285D01*
X161995238Y-43716666D01*
X161900000Y-43621428D01*
X161852380Y-43478571D01*
X161852380Y-43383333D01*
X161900000Y-43240476D01*
X161947619Y-43192857D01*
X161947619Y-42811904D02*
X161900000Y-42764285D01*
X161852380Y-42669047D01*
X161852380Y-42430952D01*
X161900000Y-42335714D01*
X161947619Y-42288095D01*
X162042857Y-42240476D01*
X162138095Y-42240476D01*
X162280952Y-42288095D01*
X162852380Y-42859523D01*
X162852380Y-42240476D01*
X161852380Y-41621428D02*
X161852380Y-41526190D01*
X161900000Y-41430952D01*
X161947619Y-41383333D01*
X162042857Y-41335714D01*
X162233333Y-41288095D01*
X162471428Y-41288095D01*
X162661904Y-41335714D01*
X162757142Y-41383333D01*
X162804761Y-41430952D01*
X162852380Y-41526190D01*
X162852380Y-41621428D01*
X162804761Y-41716666D01*
X162757142Y-41764285D01*
X162661904Y-41811904D01*
X162471428Y-41859523D01*
X162233333Y-41859523D01*
X162042857Y-41811904D01*
X161947619Y-41764285D01*
X161900000Y-41716666D01*
X161852380Y-41621428D01*
%TO.C,C4*%
X176883333Y-45407142D02*
X176835714Y-45454761D01*
X176692857Y-45502380D01*
X176597619Y-45502380D01*
X176454761Y-45454761D01*
X176359523Y-45359523D01*
X176311904Y-45264285D01*
X176264285Y-45073809D01*
X176264285Y-44930952D01*
X176311904Y-44740476D01*
X176359523Y-44645238D01*
X176454761Y-44550000D01*
X176597619Y-44502380D01*
X176692857Y-44502380D01*
X176835714Y-44550000D01*
X176883333Y-44597619D01*
X177740476Y-44835714D02*
X177740476Y-45502380D01*
X177502380Y-44454761D02*
X177264285Y-45169047D01*
X177883333Y-45169047D01*
%TO.C,C1*%
X160583333Y-68357142D02*
X160535714Y-68404761D01*
X160392857Y-68452380D01*
X160297619Y-68452380D01*
X160154761Y-68404761D01*
X160059523Y-68309523D01*
X160011904Y-68214285D01*
X159964285Y-68023809D01*
X159964285Y-67880952D01*
X160011904Y-67690476D01*
X160059523Y-67595238D01*
X160154761Y-67500000D01*
X160297619Y-67452380D01*
X160392857Y-67452380D01*
X160535714Y-67500000D01*
X160583333Y-67547619D01*
X161535714Y-68452380D02*
X160964285Y-68452380D01*
X161250000Y-68452380D02*
X161250000Y-67452380D01*
X161154761Y-67595238D01*
X161059523Y-67690476D01*
X160964285Y-67738095D01*
%TO.C,C15*%
X167539402Y-44570117D02*
X167587021Y-44617736D01*
X167634640Y-44760593D01*
X167634640Y-44855831D01*
X167587021Y-44998688D01*
X167491783Y-45093926D01*
X167396545Y-45141545D01*
X167206069Y-45189164D01*
X167063212Y-45189164D01*
X166872736Y-45141545D01*
X166777498Y-45093926D01*
X166682260Y-44998688D01*
X166634640Y-44855831D01*
X166634640Y-44760593D01*
X166682260Y-44617736D01*
X166729879Y-44570117D01*
X167634640Y-43617736D02*
X167634640Y-44189164D01*
X167634640Y-43903450D02*
X166634640Y-43903450D01*
X166777498Y-43998688D01*
X166872736Y-44093926D01*
X166920355Y-44189164D01*
X166634640Y-42712974D02*
X166634640Y-43189164D01*
X167110831Y-43236783D01*
X167063212Y-43189164D01*
X167015593Y-43093926D01*
X167015593Y-42855831D01*
X167063212Y-42760593D01*
X167110831Y-42712974D01*
X167206069Y-42665355D01*
X167444164Y-42665355D01*
X167539402Y-42712974D01*
X167587021Y-42760593D01*
X167634640Y-42855831D01*
X167634640Y-43093926D01*
X167587021Y-43189164D01*
X167539402Y-43236783D01*
%TO.C,R8*%
X171202380Y-42416666D02*
X170726190Y-42750000D01*
X171202380Y-42988095D02*
X170202380Y-42988095D01*
X170202380Y-42607142D01*
X170250000Y-42511904D01*
X170297619Y-42464285D01*
X170392857Y-42416666D01*
X170535714Y-42416666D01*
X170630952Y-42464285D01*
X170678571Y-42511904D01*
X170726190Y-42607142D01*
X170726190Y-42988095D01*
X170630952Y-41845238D02*
X170583333Y-41940476D01*
X170535714Y-41988095D01*
X170440476Y-42035714D01*
X170392857Y-42035714D01*
X170297619Y-41988095D01*
X170250000Y-41940476D01*
X170202380Y-41845238D01*
X170202380Y-41654761D01*
X170250000Y-41559523D01*
X170297619Y-41511904D01*
X170392857Y-41464285D01*
X170440476Y-41464285D01*
X170535714Y-41511904D01*
X170583333Y-41559523D01*
X170630952Y-41654761D01*
X170630952Y-41845238D01*
X170678571Y-41940476D01*
X170726190Y-41988095D01*
X170821428Y-42035714D01*
X171011904Y-42035714D01*
X171107142Y-41988095D01*
X171154761Y-41940476D01*
X171202380Y-41845238D01*
X171202380Y-41654761D01*
X171154761Y-41559523D01*
X171107142Y-41511904D01*
X171011904Y-41464285D01*
X170821428Y-41464285D01*
X170726190Y-41511904D01*
X170678571Y-41559523D01*
X170630952Y-41654761D01*
%TO.C,C17*%
X164682142Y-55057142D02*
X164634523Y-55104761D01*
X164491666Y-55152380D01*
X164396428Y-55152380D01*
X164253571Y-55104761D01*
X164158333Y-55009523D01*
X164110714Y-54914285D01*
X164063095Y-54723809D01*
X164063095Y-54580952D01*
X164110714Y-54390476D01*
X164158333Y-54295238D01*
X164253571Y-54200000D01*
X164396428Y-54152380D01*
X164491666Y-54152380D01*
X164634523Y-54200000D01*
X164682142Y-54247619D01*
X165634523Y-55152380D02*
X165063095Y-55152380D01*
X165348809Y-55152380D02*
X165348809Y-54152380D01*
X165253571Y-54295238D01*
X165158333Y-54390476D01*
X165063095Y-54438095D01*
X165967857Y-54152380D02*
X166634523Y-54152380D01*
X166205952Y-55152380D01*
D11*
%TO.C,C16*%
X170090580Y-46102740D02*
X169809420Y-46102740D01*
X170090580Y-47122740D02*
X169809420Y-47122740D01*
%TO.C,U4*%
X173135000Y-53360000D02*
X173610000Y-53360000D01*
X168865000Y-48140000D02*
X168390000Y-48140000D01*
X173135000Y-48140000D02*
X173610000Y-48140000D01*
X168390000Y-53360000D02*
X168390000Y-52885000D01*
X168865000Y-53360000D02*
X168390000Y-53360000D01*
X168390000Y-48140000D02*
X168390000Y-48615000D01*
X173610000Y-48140000D02*
X173610000Y-48615000D01*
%TO.C,C18*%
X168285000Y-56809420D02*
X168285000Y-57090580D01*
X167265000Y-56809420D02*
X167265000Y-57090580D01*
%TO.C,C13*%
X176109420Y-44010000D02*
X176390580Y-44010000D01*
X176109420Y-42990000D02*
X176390580Y-42990000D01*
%TO.C,C19*%
X163590000Y-45690580D02*
X163590000Y-45409420D01*
X164610000Y-45690580D02*
X164610000Y-45409420D01*
%TO.C,L1*%
X171787779Y-58810000D02*
X171462221Y-58810000D01*
X171787779Y-57790000D02*
X171462221Y-57790000D01*
%TO.C,C6*%
X173659420Y-55790000D02*
X173940580Y-55790000D01*
X173659420Y-56810000D02*
X173940580Y-56810000D01*
%TO.C,C14*%
X172010000Y-55309420D02*
X172010000Y-55590580D01*
X170990000Y-55309420D02*
X170990000Y-55590580D01*
%TO.C,C8*%
X171727740Y-46003320D02*
X171727740Y-45722160D01*
X172747740Y-46003320D02*
X172747740Y-45722160D01*
%TO.C,R5*%
X173224998Y-43922500D02*
X172750482Y-43922500D01*
X173224998Y-42877500D02*
X172750482Y-42877500D01*
%TO.C,C11*%
X173659420Y-54190000D02*
X173940580Y-54190000D01*
X173659420Y-55210000D02*
X173940580Y-55210000D01*
%TO.C,L2*%
X169860000Y-57100279D02*
X169860000Y-56774721D01*
X168840000Y-57100279D02*
X168840000Y-56774721D01*
D10*
%TO.C,J1*%
X178500000Y-73500000D02*
X163500000Y-73500000D01*
X163500000Y-73500000D02*
X163500000Y-65500000D01*
X178500000Y-65500000D02*
X178500000Y-73500000D01*
X178500000Y-65500000D02*
X163500000Y-65500000D01*
X178500000Y-66500000D02*
X163500000Y-66500000D01*
D11*
%TO.C,C10*%
X168740580Y-58702500D02*
X168459420Y-58702500D01*
X168740580Y-59722500D02*
X168459420Y-59722500D01*
%TO.C,C7*%
X174409420Y-46140000D02*
X174690580Y-46140000D01*
X174409420Y-47160000D02*
X174690580Y-47160000D01*
%TO.C,C20*%
X161890000Y-45690580D02*
X161890000Y-45409420D01*
X162910000Y-45690580D02*
X162910000Y-45409420D01*
%TO.C,C4*%
X174409420Y-44540000D02*
X174690580Y-44540000D01*
X174409420Y-45560000D02*
X174690580Y-45560000D01*
%TO.C,C1*%
X161261252Y-69265000D02*
X160738748Y-69265000D01*
X161261252Y-70735000D02*
X160738748Y-70735000D01*
%TO.C,C15*%
X169280000Y-44199420D02*
X169280000Y-44480580D01*
X168260000Y-44199420D02*
X168260000Y-44480580D01*
%TO.C,R8*%
X170177500Y-44337258D02*
X170177500Y-43862742D01*
X171222500Y-44337258D02*
X171222500Y-43862742D01*
%TO.C,C17*%
X168715580Y-54190000D02*
X168434420Y-54190000D01*
X168715580Y-55210000D02*
X168434420Y-55210000D01*
%TD*%
M02*
