%TF.GenerationSoftware,KiCad,Pcbnew,(6.0.5)*%
%TF.CreationDate,2025-03-15T15:53:08+01:00*%
%TF.ProjectId,PMA5-123-3W,504d4135-2d31-4323-932d-33572e6b6963,rev?*%
%TF.SameCoordinates,Original*%
%TF.FileFunction,Paste,Top*%
%TF.FilePolarity,Positive*%
%FSLAX46Y46*%
G04 Gerber Fmt 4.6, Leading zero omitted, Abs format (unit mm)*
G04 Created by KiCad (PCBNEW (6.0.5)) date 2025-03-15 15:53:08*
%MOMM*%
%LPD*%
G01*
G04 APERTURE LIST*
G04 Aperture macros list*
%AMRoundRect*
0 Rectangle with rounded corners*
0 $1 Rounding radius*
0 $2 $3 $4 $5 $6 $7 $8 $9 X,Y pos of 4 corners*
0 Add a 4 corners polygon primitive as box body*
4,1,4,$2,$3,$4,$5,$6,$7,$8,$9,$2,$3,0*
0 Add four circle primitives for the rounded corners*
1,1,$1+$1,$2,$3*
1,1,$1+$1,$4,$5*
1,1,$1+$1,$6,$7*
1,1,$1+$1,$8,$9*
0 Add four rect primitives between the rounded corners*
20,1,$1+$1,$2,$3,$4,$5,0*
20,1,$1+$1,$4,$5,$6,$7,0*
20,1,$1+$1,$6,$7,$8,$9,0*
20,1,$1+$1,$8,$9,$2,$3,0*%
%AMFreePoly0*
4,1,48,0.127555,0.216286,0.145112,0.216286,0.159316,0.205966,0.176016,0.200540,0.186336,0.186336,0.200540,0.176016,0.205966,0.159316,0.216286,0.145112,0.216286,0.127555,0.221712,0.110856,0.221712,-0.110856,0.216286,-0.127555,0.216286,-0.145112,0.205966,-0.159316,0.200540,-0.176016,0.186336,-0.186336,0.176016,-0.200540,0.159316,-0.205966,0.145112,-0.216286,0.127555,-0.216286,
0.110856,-0.221712,-0.110856,-0.221712,-0.127555,-0.216286,-0.145112,-0.216286,-0.159316,-0.205966,-0.176016,-0.200540,-0.186336,-0.186336,-0.200540,-0.176016,-0.205966,-0.159316,-0.216286,-0.145112,-0.216286,-0.127555,-0.221712,-0.110856,-0.221712,-0.000473,-0.218948,0.008034,-0.220347,0.016868,-0.208562,0.039997,-0.200540,0.064687,-0.193304,0.069944,-0.189243,0.077914,-0.077914,0.189243,
-0.069944,0.193304,-0.064687,0.200540,-0.039997,0.208562,-0.016868,0.220347,-0.008034,0.218948,0.000473,0.221712,0.110856,0.221712,0.127555,0.216286,0.127555,0.216286,$1*%
%AMFreePoly1*
4,1,51,0.238787,0.219373,0.246263,0.220557,0.265836,0.210584,0.286728,0.203796,0.291177,0.197673,0.297922,0.194236,0.375637,0.116520,0.379073,0.109776,0.385197,0.105327,0.391985,0.084434,0.401958,0.064862,0.400774,0.057386,0.403113,0.050187,0.403113,-0.127902,0.398522,-0.142032,0.398522,-0.156891,0.389788,-0.168912,0.385197,-0.183042,0.373177,-0.191776,0.364443,-0.203796,
0.350313,-0.208387,0.338292,-0.217121,0.323433,-0.217121,0.309303,-0.221712,-0.309303,-0.221712,-0.323433,-0.217121,-0.338292,-0.217121,-0.350313,-0.208387,-0.364443,-0.203796,-0.373177,-0.191776,-0.385197,-0.183042,-0.389788,-0.168912,-0.398522,-0.156891,-0.398522,-0.142032,-0.403113,-0.127902,-0.403113,0.050187,-0.400774,0.057386,-0.401958,0.064862,-0.391985,0.084435,-0.385197,0.105327,
-0.379074,0.109776,-0.375637,0.116521,-0.297921,0.194236,-0.291177,0.197672,-0.286728,0.203796,-0.265835,0.210584,-0.246263,0.220557,-0.238787,0.219373,-0.231588,0.221712,0.231588,0.221712,0.238787,0.219373,0.238787,0.219373,$1*%
%AMFreePoly2*
4,1,51,0.142032,0.398522,0.156891,0.398522,0.168912,0.389788,0.183042,0.385197,0.191776,0.373177,0.203796,0.364443,0.208387,0.350313,0.217121,0.338292,0.217121,0.323433,0.221712,0.309303,0.221712,-0.309303,0.217121,-0.323433,0.217121,-0.338292,0.208387,-0.350313,0.203796,-0.364443,0.191776,-0.373177,0.183042,-0.385197,0.168912,-0.389788,0.156891,-0.398522,0.142032,-0.398522,
0.127902,-0.403113,-0.050187,-0.403113,-0.057386,-0.400774,-0.064862,-0.401958,-0.084434,-0.391985,-0.105327,-0.385197,-0.109776,-0.379073,-0.116520,-0.375637,-0.194236,-0.297922,-0.197673,-0.291177,-0.203796,-0.286728,-0.210584,-0.265836,-0.220557,-0.246263,-0.219373,-0.238787,-0.221712,-0.231588,-0.221712,0.231588,-0.219373,0.238787,-0.220557,0.246263,-0.210584,0.265836,-0.203796,0.286728,
-0.197673,0.291177,-0.194236,0.297922,-0.116520,0.375637,-0.109776,0.379073,-0.105327,0.385197,-0.084434,0.391985,-0.064862,0.401958,-0.057386,0.400774,-0.050187,0.403113,0.127902,0.403113,0.142032,0.398522,0.142032,0.398522,$1*%
%AMFreePoly3*
4,1,51,0.057386,0.400774,0.064862,0.401958,0.084435,0.391985,0.105327,0.385197,0.109776,0.379074,0.116521,0.375637,0.194236,0.297921,0.197672,0.291177,0.203796,0.286728,0.210584,0.265835,0.220557,0.246263,0.219373,0.238787,0.221712,0.231588,0.221712,-0.231588,0.219373,-0.238787,0.220557,-0.246263,0.210584,-0.265835,0.203796,-0.286728,0.197672,-0.291177,0.194236,-0.297921,
0.116521,-0.375637,0.109776,-0.379074,0.105327,-0.385197,0.084435,-0.391985,0.064862,-0.401958,0.057386,-0.400774,0.050187,-0.403113,-0.127902,-0.403113,-0.142032,-0.398522,-0.156891,-0.398522,-0.168912,-0.389788,-0.183042,-0.385197,-0.191776,-0.373177,-0.203796,-0.364443,-0.208387,-0.350313,-0.217121,-0.338292,-0.217121,-0.323433,-0.221712,-0.309303,-0.221712,0.309303,-0.217121,0.323433,
-0.217121,0.338292,-0.208387,0.350313,-0.203796,0.364443,-0.191776,0.373177,-0.183042,0.385197,-0.168912,0.389788,-0.156891,0.398522,-0.142032,0.398522,-0.127902,0.403113,0.050187,0.403113,0.057386,0.400774,0.057386,0.400774,$1*%
%AMFreePoly4*
4,1,51,0.323433,0.217121,0.338292,0.217121,0.350313,0.208387,0.364443,0.203796,0.373177,0.191776,0.385197,0.183042,0.389788,0.168912,0.398522,0.156891,0.398522,0.142032,0.403113,0.127902,0.403113,-0.050187,0.400774,-0.057386,0.401958,-0.064862,0.391985,-0.084434,0.385197,-0.105327,0.379073,-0.109776,0.375637,-0.116520,0.297922,-0.194236,0.291177,-0.197673,0.286728,-0.203796,
0.265836,-0.210584,0.246263,-0.220557,0.238787,-0.219373,0.231588,-0.221712,-0.231588,-0.221712,-0.238787,-0.219373,-0.246263,-0.220557,-0.265835,-0.210584,-0.286728,-0.203796,-0.291177,-0.197672,-0.297921,-0.194236,-0.375637,-0.116521,-0.379074,-0.109776,-0.385197,-0.105327,-0.391985,-0.084435,-0.401958,-0.064862,-0.400774,-0.057386,-0.403113,-0.050187,-0.403113,0.127902,-0.398522,0.142032,
-0.398522,0.156891,-0.389788,0.168912,-0.385197,0.183042,-0.373177,0.191776,-0.364443,0.203796,-0.350313,0.208387,-0.338292,0.217121,-0.323433,0.217121,-0.309303,0.221712,0.309303,0.221712,0.323433,0.217121,0.323433,0.217121,$1*%
%AMFreePoly5*
4,1,48,0.127555,0.216286,0.145112,0.216286,0.159316,0.205966,0.176016,0.200540,0.186336,0.186336,0.200540,0.176016,0.205966,0.159316,0.216286,0.145112,0.216286,0.127555,0.221712,0.110856,0.221712,-0.110856,0.216286,-0.127555,0.216286,-0.145112,0.205966,-0.159316,0.200540,-0.176016,0.186336,-0.186336,0.176016,-0.200540,0.159316,-0.205966,0.145112,-0.216286,0.127555,-0.216286,
0.110856,-0.221712,0.000473,-0.221712,-0.008034,-0.218948,-0.016868,-0.220347,-0.039997,-0.208562,-0.064687,-0.200540,-0.069944,-0.193304,-0.077914,-0.189243,-0.189243,-0.077914,-0.193304,-0.069944,-0.200540,-0.064687,-0.208562,-0.039997,-0.220347,-0.016868,-0.218948,-0.008034,-0.221712,0.000473,-0.221712,0.110856,-0.216286,0.127555,-0.216286,0.145112,-0.205966,0.159316,-0.200540,0.176016,
-0.186336,0.186336,-0.176016,0.200540,-0.159316,0.205966,-0.145112,0.216286,-0.127555,0.216286,-0.110856,0.221712,0.110856,0.221712,0.127555,0.216286,0.127555,0.216286,$1*%
%AMFreePoly6*
4,1,48,0.008034,0.218948,0.016868,0.220347,0.039997,0.208562,0.064687,0.200540,0.069944,0.193304,0.077914,0.189243,0.189243,0.077914,0.193304,0.069944,0.200540,0.064687,0.208562,0.039997,0.220347,0.016868,0.218948,0.008034,0.221712,-0.000473,0.221712,-0.110856,0.216286,-0.127555,0.216286,-0.145112,0.205966,-0.159316,0.200540,-0.176016,0.186336,-0.186336,0.176016,-0.200540,
0.159316,-0.205966,0.145112,-0.216286,0.127555,-0.216286,0.110856,-0.221712,-0.110856,-0.221712,-0.127555,-0.216286,-0.145112,-0.216286,-0.159316,-0.205966,-0.176016,-0.200540,-0.186336,-0.186336,-0.200540,-0.176016,-0.205966,-0.159316,-0.216286,-0.145112,-0.216286,-0.127555,-0.221712,-0.110856,-0.221712,0.110856,-0.216286,0.127555,-0.216286,0.145112,-0.205966,0.159316,-0.200540,0.176016,
-0.186336,0.186336,-0.176016,0.200540,-0.159316,0.205966,-0.145112,0.216286,-0.127555,0.216286,-0.110856,0.221712,-0.000473,0.221712,0.008034,0.218948,0.008034,0.218948,$1*%
%AMFreePoly7*
4,1,48,0.127555,0.216286,0.145112,0.216286,0.159316,0.205966,0.176016,0.200540,0.186336,0.186336,0.200540,0.176016,0.205966,0.159316,0.216286,0.145112,0.216286,0.127555,0.221712,0.110856,0.221712,0.000473,0.218948,-0.008034,0.220347,-0.016868,0.208562,-0.039997,0.200540,-0.064687,0.193304,-0.069944,0.189243,-0.077914,0.077914,-0.189243,0.069944,-0.193304,0.064687,-0.200540,
0.039997,-0.208562,0.016868,-0.220347,0.008034,-0.218948,-0.000473,-0.221712,-0.110856,-0.221712,-0.127555,-0.216286,-0.145112,-0.216286,-0.159316,-0.205966,-0.176016,-0.200540,-0.186336,-0.186336,-0.200540,-0.176016,-0.205966,-0.159316,-0.216286,-0.145112,-0.216286,-0.127555,-0.221712,-0.110856,-0.221712,0.110856,-0.216286,0.127555,-0.216286,0.145112,-0.205966,0.159316,-0.200540,0.176016,
-0.186336,0.186336,-0.176016,0.200540,-0.159316,0.205966,-0.145112,0.216286,-0.127555,0.216286,-0.110856,0.221712,0.110856,0.221712,0.127555,0.216286,0.127555,0.216286,$1*%
G04 Aperture macros list end*
%ADD10RoundRect,0.225000X0.225000X0.250000X-0.225000X0.250000X-0.225000X-0.250000X0.225000X-0.250000X0*%
%ADD11RoundRect,0.201557X0.201556X0.201556X-0.201556X0.201556X-0.201556X-0.201556X0.201556X-0.201556X0*%
%ADD12FreePoly0,180.000000*%
%ADD13FreePoly1,180.000000*%
%ADD14FreePoly2,180.000000*%
%ADD15FreePoly3,180.000000*%
%ADD16FreePoly4,180.000000*%
%ADD17FreePoly5,180.000000*%
%ADD18FreePoly6,180.000000*%
%ADD19FreePoly7,180.000000*%
%ADD20RoundRect,0.062500X0.375000X0.062500X-0.375000X0.062500X-0.375000X-0.062500X0.375000X-0.062500X0*%
%ADD21RoundRect,0.062500X0.062500X0.375000X-0.062500X0.375000X-0.062500X-0.375000X0.062500X-0.375000X0*%
%ADD22RoundRect,0.225000X-0.250000X0.225000X-0.250000X-0.225000X0.250000X-0.225000X0.250000X0.225000X0*%
%ADD23RoundRect,0.225000X-0.225000X-0.250000X0.225000X-0.250000X0.225000X0.250000X-0.225000X0.250000X0*%
%ADD24RoundRect,0.225000X0.250000X-0.225000X0.250000X0.225000X-0.250000X0.225000X-0.250000X-0.225000X0*%
%ADD25RoundRect,0.218750X0.218750X0.256250X-0.218750X0.256250X-0.218750X-0.256250X0.218750X-0.256250X0*%
%ADD26R,4.700000X1.100000*%
%ADD27RoundRect,0.250000X-1.075000X0.362500X-1.075000X-0.362500X1.075000X-0.362500X1.075000X0.362500X0*%
%ADD28RoundRect,0.200000X0.200000X0.275000X-0.200000X0.275000X-0.200000X-0.275000X0.200000X-0.275000X0*%
%ADD29RoundRect,0.218750X0.256250X-0.218750X0.256250X0.218750X-0.256250X0.218750X-0.256250X-0.218750X0*%
%ADD30RoundRect,0.250000X0.250000X0.475000X-0.250000X0.475000X-0.250000X-0.475000X0.250000X-0.475000X0*%
%ADD31RoundRect,0.200000X0.275000X-0.200000X0.275000X0.200000X-0.275000X0.200000X-0.275000X-0.200000X0*%
G04 APERTURE END LIST*
D10*
%TO.C,C16*%
X170725000Y-46612740D03*
X169175000Y-46612740D03*
%TD*%
D11*
%TO.C,U4*%
X170500000Y-50250000D03*
D12*
X169725000Y-49475000D03*
D13*
X170500000Y-49475000D03*
D14*
X169725000Y-50250000D03*
D15*
X172275000Y-50250000D03*
D13*
X171500000Y-49475000D03*
D11*
X171500000Y-50250000D03*
X171500000Y-51250000D03*
X170500000Y-51250000D03*
D14*
X169725000Y-51250000D03*
D16*
X171500000Y-52025000D03*
D17*
X169725000Y-52025000D03*
D15*
X172275000Y-51250000D03*
D18*
X172275000Y-49475000D03*
D19*
X172275000Y-52025000D03*
D16*
X170500000Y-52025000D03*
D20*
X173437500Y-52500000D03*
X173437500Y-52000000D03*
X173437500Y-51500000D03*
X173437500Y-51000000D03*
X173437500Y-50500000D03*
X173437500Y-50000000D03*
X173437500Y-49500000D03*
X173437500Y-49000000D03*
D21*
X172750000Y-48312500D03*
X172250000Y-48312500D03*
X171750000Y-48312500D03*
X171250000Y-48312500D03*
X170750000Y-48312500D03*
X170250000Y-48312500D03*
X169750000Y-48312500D03*
X169250000Y-48312500D03*
D20*
X168562500Y-49000000D03*
X168562500Y-49500000D03*
X168562500Y-50000000D03*
X168562500Y-50500000D03*
X168562500Y-51000000D03*
X168562500Y-51500000D03*
X168562500Y-52000000D03*
X168562500Y-52500000D03*
D21*
X169250000Y-53187500D03*
X169750000Y-53187500D03*
X170250000Y-53187500D03*
X170750000Y-53187500D03*
X171250000Y-53187500D03*
X171750000Y-53187500D03*
X172250000Y-53187500D03*
X172750000Y-53187500D03*
%TD*%
D22*
%TO.C,C18*%
X167775000Y-56175000D03*
X167775000Y-57725000D03*
%TD*%
D23*
%TO.C,C13*%
X175475000Y-43500000D03*
X177025000Y-43500000D03*
%TD*%
D24*
%TO.C,C19*%
X164100000Y-46325000D03*
X164100000Y-44775000D03*
%TD*%
D25*
%TO.C,L1*%
X172412500Y-58300000D03*
X170837500Y-58300000D03*
%TD*%
D26*
%TO.C,J3*%
X183640000Y-51000000D03*
%TD*%
D23*
%TO.C,C6*%
X173025000Y-56300000D03*
X174575000Y-56300000D03*
%TD*%
D27*
%TO.C,R13*%
X178000000Y-48687500D03*
X178000000Y-53312500D03*
%TD*%
D22*
%TO.C,C14*%
X171500000Y-54675000D03*
X171500000Y-56225000D03*
%TD*%
D24*
%TO.C,C8*%
X172237740Y-46637740D03*
X172237740Y-45087740D03*
%TD*%
D28*
%TO.C,R5*%
X173812740Y-43400000D03*
X172162740Y-43400000D03*
%TD*%
D23*
%TO.C,C11*%
X173025000Y-54700000D03*
X174575000Y-54700000D03*
%TD*%
D29*
%TO.C,L2*%
X169350000Y-57725000D03*
X169350000Y-56150000D03*
%TD*%
D10*
%TO.C,C10*%
X169375000Y-59212500D03*
X167825000Y-59212500D03*
%TD*%
D23*
%TO.C,C7*%
X173775000Y-46650000D03*
X175325000Y-46650000D03*
%TD*%
D26*
%TO.C,J5*%
X158360000Y-51000000D03*
%TD*%
D24*
%TO.C,C20*%
X162400000Y-46325000D03*
X162400000Y-44775000D03*
%TD*%
D23*
%TO.C,C4*%
X173775000Y-45050000D03*
X175325000Y-45050000D03*
%TD*%
D30*
%TO.C,C1*%
X161950000Y-70000000D03*
X160050000Y-70000000D03*
%TD*%
D22*
%TO.C,C15*%
X168770000Y-43565000D03*
X168770000Y-45115000D03*
%TD*%
D31*
%TO.C,R8*%
X170700000Y-44925000D03*
X170700000Y-43275000D03*
%TD*%
D10*
%TO.C,C17*%
X169350000Y-54700000D03*
X167800000Y-54700000D03*
%TD*%
M02*
