M48
; DRILL file {KiCad (6.0.5)} date Sat Mar 15 15:53:11 2025
; FORMAT={-:-/ absolute / inch / decimal}
; #@! TF.CreationDate,2025-03-15T15:53:11+01:00
; #@! TF.GenerationSoftware,Kicad,Pcbnew,(6.0.5)
; #@! TF.FileFunction,Plated,1,2,PTH
FMAT,2
INCH
; #@! TA.AperFunction,Plated,PTH,ComponentDrill
T1C0.0079
; #@! TA.AperFunction,Plated,PTH,ViaDrill
T2C0.0157
; #@! TA.AperFunction,Plated,PTH,ComponentDrill
T3C0.0197
; #@! TA.AperFunction,Plated,PTH,ComponentDrill
T4C0.0472
; #@! TA.AperFunction,Plated,PTH,ComponentDrill
T5C0.0866
; #@! TA.AperFunction,Plated,PTH,ComponentDrill
T6C0.1063
%
G90
G05
T1
X6.6693Y-1.937
X6.6693Y-1.9646
X6.6693Y-1.9921
X6.6693Y-2.0197
X6.6693Y-2.0472
X6.6772Y-1.9508
X6.6772Y-1.9783
X6.6772Y-2.0059
X6.6772Y-2.0335
X6.6772Y-2.061
X6.685Y-1.937
X6.685Y-1.9646
X6.685Y-1.9921
X6.685Y-2.0197
X6.685Y-2.0472
X6.6929Y-1.9508
X6.6929Y-1.9783
X6.6929Y-2.0059
X6.6929Y-2.0335
X6.6929Y-2.061
X6.7008Y-1.937
X6.7008Y-1.9646
X6.7008Y-1.9921
X6.7008Y-2.0197
X6.7008Y-2.0472
X6.7087Y-1.9508
X6.7087Y-1.9783
X6.7087Y-2.0059
X6.7087Y-2.0335
X6.7087Y-2.061
X6.7165Y-1.937
X6.7165Y-1.9646
X6.7165Y-1.9921
X6.7165Y-2.0197
X6.7165Y-2.0472
X6.7244Y-1.9508
X6.7244Y-1.9783
X6.7244Y-2.0059
X6.7244Y-2.0335
X6.7244Y-2.061
X6.7323Y-1.937
X6.7323Y-1.9646
X6.7323Y-1.9921
X6.7323Y-2.0197
X6.7323Y-2.0472
X6.7402Y-1.9508
X6.7402Y-1.9783
X6.7402Y-2.0059
X6.7402Y-2.0335
X6.7402Y-2.061
X6.748Y-1.937
X6.748Y-1.9646
X6.748Y-1.9921
X6.748Y-2.0197
X6.748Y-2.0472
X6.7559Y-1.9508
X6.7559Y-1.9783
X6.7559Y-2.0059
X6.7559Y-2.0335
X6.7559Y-2.061
X6.7638Y-1.937
X6.7638Y-1.9646
X6.7638Y-1.9921
X6.7638Y-2.0197
X6.7638Y-2.0472
X6.7717Y-1.9508
X6.7717Y-1.9783
X6.7717Y-2.0059
X6.7717Y-2.0335
X6.7717Y-2.061
X6.7795Y-1.937
X6.7795Y-1.9646
X6.7795Y-1.9921
X6.7795Y-2.0197
X6.7795Y-2.0472
X6.7874Y-1.9508
X6.7874Y-1.9783
X6.7874Y-2.0059
X6.7874Y-2.0335
X6.7874Y-2.061
X6.7953Y-1.937
X6.7953Y-1.9646
X6.7953Y-1.9921
X6.7953Y-2.0197
X6.7953Y-2.0472
T2
X6.2008Y-1.7126
X6.2008Y-2.3031
X6.2598Y-2.7264
X6.2598Y-2.7854
X6.2795Y-1.7126
X6.2795Y-2.3031
X6.378Y-1.4961
X6.378Y-1.5748
X6.378Y-2.4409
X6.378Y-2.5197
X6.3937Y-1.7283
X6.4567Y-1.4961
X6.4567Y-1.5748
X6.4567Y-2.4409
X6.4567Y-2.5197
X6.4606Y-1.7283
X6.5354Y-1.4961
X6.5354Y-1.5748
X6.5669Y-2.3228
X6.5669Y-2.3583
X6.5684Y-2.2544
X6.5684Y-2.2899
X6.5709Y-2.1299
X6.5709Y-2.1654
X6.6142Y-1.4961
X6.6142Y-1.5748
X6.6142Y-2.4409
X6.6142Y-2.5197
X6.622Y-1.815
X6.622Y-1.8504
X6.6929Y-1.4961
X6.6929Y-1.5748
X6.6929Y-2.4409
X6.6929Y-2.5197
X6.7362Y-2.248
X6.7638Y-1.752
X6.7717Y-1.4961
X6.7717Y-1.5748
X6.7717Y-2.248
X6.7717Y-2.4409
X6.7717Y-2.5197
X6.7992Y-1.752
X6.8504Y-1.4961
X6.8504Y-1.5748
X6.8504Y-2.4409
X6.8504Y-2.5197
X6.9055Y-2.1339
X6.9055Y-2.1693
X6.9055Y-2.2047
X6.9055Y-2.2402
X6.9291Y-1.4961
X6.9291Y-1.5748
X6.9291Y-2.4409
X6.9291Y-2.5197
X6.937Y-1.7598
X6.937Y-1.7913
X6.937Y-1.8228
X6.937Y-1.8543
X7.0039Y-1.6969
X7.0039Y-1.7323
X7.0079Y-1.4961
X7.0079Y-1.5748
X7.0571Y-2.4409
X7.0571Y-2.5197
X7.0866Y-1.4961
X7.0866Y-1.5748
X7.185Y-1.7126
X7.185Y-2.3031
X7.2638Y-1.7126
X7.2638Y-2.3031
T3
X6.1801Y-1.5748
X6.1801Y-2.4409
X6.2035Y-1.5184
X6.2035Y-1.6312
X6.2035Y-2.3846
X6.2035Y-2.4973
X6.2598Y-1.4951
X6.2598Y-1.6545
X6.2598Y-2.3612
X6.2598Y-2.5207
X6.3162Y-1.5184
X6.3162Y-1.6312
X6.3162Y-2.3846
X6.3162Y-2.4973
X6.3396Y-1.5748
X6.3396Y-2.4409
X7.125Y-1.5748
X7.125Y-2.4409
X7.1484Y-1.5184
X7.1484Y-1.6312
X7.1484Y-2.3846
X7.1484Y-2.4973
X7.2047Y-1.4951
X7.2047Y-1.6545
X7.2047Y-2.3612
X7.2047Y-2.5207
X7.2611Y-1.5184
X7.2611Y-1.6312
X7.2611Y-2.3846
X7.2611Y-2.4973
X7.2844Y-1.5748
X7.2844Y-2.4409
T4
X6.5354Y-2.7559
X6.7323Y-2.7559
X6.9291Y-2.7559
T5
X6.2346Y-1.8209
X6.2346Y-2.1949
X7.2299Y-1.8209
X7.2299Y-2.1949
T6
X6.2598Y-1.5748
X6.2598Y-2.4409
X7.2047Y-1.5748
X7.2047Y-2.4409
T0
M30
